<svg
  width="512"
  height="512"
  viewBox="0 0 24 24"
  fill="none"
  xmlns="http://www.w3.org/2000/svg"
>
  <circle cx="12" cy="12" r="10" fill="black" stroke="gold" stroke-width="1.5"/>
  
  <path
    d="M9 16c0-2 1-2.5 2-3.5s-1-2-1-3c0-1 1-2 2-2 2 0 2.5 1 2.5 2.5 0 1.5-2 2.5-1 3s2 1 2 3c0 2-1.5 3-3.5 3s-3-1-3-3Z"
    fill="brown"
    stroke="gold"
    stroke-width="0.8"
  />
  
  <text x="6" y="21" font-size="5" fill="gold" font-weight="bold">$PIS</text>

  <polygon
    points="8,6 10,2 12,6 14,2 16,6"
    fill="gold"
    stroke="black"
    stroke-width="0.5"
  />
</svg>